<svg xmlns="http://www.w3.org/2000/svg" viewBox="0 0 791.7 152.6">
    <title>
        Home
    </title>
    <desc>
        ERH for BOE
    </desc>
    <g>
        <path d="M417.5,64.4v5.5h-8.2V94c0.1,1.1,0.3,7.1-3.5,11.3c-2.4,2.6-5.7,4-9.9,4v-5.5c2.6,0,4.6-0.7,5.9-2.1 c2.5-2.7,2.1-7.2,2.1-7.3l0-0.3V69.9h-7.7v-5.5h7.7v-9c0-11.6,7-15,10.1-15.9c5.8-1.8,12.8,0.2,15.8,4.7l-4.5,3.1 c-1.5-2.2-5.8-3.7-9.7-2.5c-4,1.2-6.2,5-6.2,10.7v9H417.5z"  style="fill: rgb(45, 167, 223);"/>
        <path d="M477.2,61c0.1,0.1,1.8,1.7,3.1,4.7c1.1-1.2,2.5-2.3,4.1-3.2c5.8-3.1,13.1-1.6,13.4-1.6l-1.1,5.4 c-0.1,0-5.7-1.1-9.7,1c-3.4,1.8-5,4.6-5,8.9v25.6h-5.5V76.5h0c0-0.1,0-0.1,0-0.2v-2.5c0-5.8-3-8.7-3-8.7L477.2,61z"  style="fill: rgb(45, 167, 223);"/>
        <path d="M444,63.6c-11,0-19.9,8.9-19.9,19.9c0,11,8.9,19.9,19.9,19.9c11,0,19.9-8.9,19.9-19.9 C463.9,72.5,455,63.6,444,63.6z M444,97.9c-7.9,0-14.4-6.5-14.4-14.4c0-7.9,6.5-14.4,14.4-14.4c7.9,0,14.4,6.5,14.4,14.4 C458.4,91.4,452,97.9,444,97.9z"  style="fill: rgb(45, 167, 223);"/>
    </g>
    <g>
        <path d="M56.3,51.3v23.3h35.8v7.8H56.3v24.3h41.4v7.7H48.2v-71h48.2v7.8H56.3z"  style="fill: rgb(45, 167, 223); stroke: rgb(45, 167, 223);"/>
        <path d="M153.4,106.7v7.7h-39.2v-71h8.1v63.3H153.4z"  style="fill: rgb(45, 167, 223); stroke: rgb(45, 167, 223);"/>
        <path d="M174.7,51.3v23.3h35.8v7.8h-35.8v24.3h41.4v7.7h-49.5v-71h48.2v7.8H174.7z"  style="fill: rgb(45, 167, 223); stroke: rgb(45, 167, 223);"/>
        <path d="M283.3,114.4l-42.6-57v57h-8.1v-71h8.4l42.6,57.1V43.5h8v71H283.3z"  style="fill: rgb(45, 167, 223); stroke: rgb(45, 167, 223);"/>
        <path d="M319.4,96.5l-7.9,17.9h-8.6l31.8-71h8.4l31.7,71H366l-7.9-17.9H319.4z M338.7,52.7l-15.8,36h31.8L338.7,52.7z"  style="fill: rgb(45, 167, 223); stroke: rgb(45, 167, 223);"/>
    </g>
    <g>
        <g>
            <path d="M562.6,76.1c7.1-2.4,11.2-8.3,11.2-16.1c0-11.6-8.9-18.5-23.8-18.5h-30.8v72.9h31.3 c16.5,0,26.4-7.5,26.4-20.1C577,85,571.7,78.3,562.6,76.1z M528.6,81.4h21c11.3,0,17.9,4.3,17.9,11.8c0,7.8-6.5,12.2-17.9,12.2 h-21V81.4z M549.6,72.4h-21V50.5h21c9.3,0,14.7,3.9,14.7,10.8C564.3,68.3,559,72.4,549.6,72.4z"  style="fill: rgb(45, 167, 223);"/>
            <path d="M667.5,77.9c0-20.6-16.7-36.7-38.1-36.7c-21.4,0-38.2,16.1-38.2,36.7c0,20.7,16.8,36.9,38.2,36.9 C650.7,114.8,667.5,98.6,667.5,77.9z M657.9,77.9c0,15.3-12.8,27.8-28.5,27.8c-15.8,0-28.7-12.5-28.7-27.8 c0-15.3,12.9-27.7,28.7-27.7C645.1,50.2,657.9,62.6,657.9,77.9z"  style="fill: rgb(45, 167, 223);"/>
            <polygon points="738.5,105.4 696.6,105.4 696.6,82 732.8,82 732.8,72.9 696.6,72.9 696.6,50.5 737.1,50.5 737.1,41.4  687.2,41.4 687.2,114.4 738.5,114.4    "  style="fill: rgb(45, 167, 223);"/>
        </g>
        <rect width="9" height="9" x="582.4" y="105.3" />
        <rect width="9" height="9" x="667.4" y="105.3" />
    </g>
</svg>
