<svg xmlns="http://www.w3.org/2000/svg" viewBox="0 0 579 446"><title>erhforboe</title><path d="M17.95,18.8v39h59.9V70.89H17.95v40.72H87.18v12.9H4.37V5.73H85V18.8Z" fill="#2da7df" stroke="#2da7df" stroke-miterlimit="10" stroke-width="1.67"/><path d="M180.51,111.62v12.9H114.84V5.73h13.57V111.62Z" fill="#2da7df" stroke="#2da7df" stroke-miterlimit="10" stroke-width="1.67"/><path d="M216.14,18.8v39H276V70.89h-59.9v40.72h69.23v12.9H202.57V5.73h80.6V18.8Z" fill="#2da7df" stroke="#2da7df" stroke-miterlimit="10" stroke-width="1.67"/><path d="M397.87,124.51,326.61,29.15v95.36H313V5.73h14.08l71.27,95.53V5.73h13.4V124.51Z" fill="#2da7df" stroke="#2da7df" stroke-miterlimit="10" stroke-width="1.67"/><path d="M458.28,94.48l-13.23,30H430.62L483.91,5.73H498L551.1,124.51H536.34l-13.24-30Zm32.24-73.3L464.05,81.41h53.28Z" fill="#2da7df" stroke="#2da7df" stroke-miterlimit="10" stroke-width="1.67"/><rect x="475.46" y="76.77" width="30.07" height="26.18" fill="#fff"/><path d="M458.33,296.49l31.58-3.23,27.69-5.94,32.83-6.65V213.55l-59.72,12.11-31.82-5.79,33.3-1.8L532,210V165.15l-41.27,3.47-41.27-3.47v44.69L431,213.55h0l-.12,0,.12,0v66.91l-22.36,4.79,1.56.37-1.84-.37v92.46l82.11,24.63v.1l.16,0,.16,0v-.1l82.11-24.63V285.32L490.63,302Z" fill="#ee4d9b"/><rect x="458.81" y="127.9" width="63.65" height="35.32" fill="#ee4d9b"/><rect x="468.45" y="98.72" width="44.35" height="25.54" fill="#ee4d9b"/><polygon points="502.7 75.34 490.36 73.42 478.56 75.34 478.56 95.46 502.7 95.46 502.7 75.34" fill="#ee4d9b"/><path d="M77,310.75c11.83-4,18.75-13.82,18.75-27,0-19.43-14.87-31-39.77-31H4.37V374.87H56.84c27.7,0,44.23-12.56,44.23-33.6C101.08,325.67,92.17,314.51,77,310.75ZM20.1,319.62H55.3c19,0,29.88,7.2,29.88,19.76,0,13-10.89,20.45-29.88,20.45H20.1Zm35.2-15H20.1V268H55.3c15.61,0,24.57,6.58,24.57,18C79.86,297.82,70.91,304.59,55.3,304.59Z" fill="#2da7df"/><path d="M252.5,313.82c0-34.42-28-61.39-63.79-61.39s-64,27-64,61.39c0,34.62,28.1,61.73,64,61.73S252.5,348.44,252.5,313.82Zm-16.06,0c0,25.66-21.41,46.53-47.73,46.53-26.51,0-48.07-20.87-48.07-46.53s21.57-46.36,48.07-46.36C215,267.46,236.44,288.26,236.44,313.82Z" fill="#2da7df"/><polygon points="371.34 359.83 301.34 359.83 301.34 320.65 361.9 320.65 361.9 305.44 301.34 305.44 301.34 267.98 369.11 267.98 369.11 252.77 285.62 252.77 285.62 374.87 371.34 374.87 371.34 359.83" fill="#2da7df"/><rect x="110.12" y="359.67" width="15.03" height="15.03" fill="#2da7df"/><rect x="252.39" y="359.67" width="15.03" height="15.03" fill="#2da7df"/><path d="M162,175.67v5.95H153.1v26.19c.09,1.18.35,7.71-3.76,12.26-2.58,2.84-6.21,4.29-10.79,4.29V218.4c2.86,0,4.94-.76,6.36-2.31,2.67-2.92,2.26-7.84,2.26-7.89V181.62h-8.34v-5.95h8.34v-9.76c0-12.55,7.64-16.28,10.93-17.3,6.34-2,13.88.25,17.18,5l-4.9,3.37c-1.64-2.39-6.25-4.06-10.51-2.74s-6.74,5.48-6.74,11.62v9.76Z" fill="#2da7df"/><path d="M226.7,172a16.38,16.38,0,0,1,3.4,5.11,16.78,16.78,0,0,1,4.48-3.43c6.25-3.32,14.17-1.77,14.51-1.7l-1.18,5.83c-.06,0-6.2-1.19-10.54,1.12-3.68,2-5.41,5-5.47,9.6v27.8h-5.95V188.79h0c0-.07,0-.14,0-.22v-2.73c0-6.27-3.24-9.42-3.27-9.45Z" fill="#2da7df"/><path d="M190.73,174.76a21.58,21.58,0,1,0,21.58,21.58A21.6,21.6,0,0,0,190.73,174.76Zm0,37.2a15.63,15.63,0,1,1,15.63-15.63A15.65,15.65,0,0,1,190.73,212Z" fill="#2da7df"/><path d="M20.3,441.08l-3.6-6c-.28,0-.59,0-.9,0H11.12v5.94H7.8V421.38h8c5,0,7.94,2.45,7.94,6.73,0,3.15-1.46,5.38-4.08,6.39l4.42,6.59Zm-4.5-8.92c3,0,4.79-1.29,4.79-4s-1.75-3.83-4.79-3.83H11.12v7.8Z" fill="#2da7df"/><path d="M42.17,433.57c0,4.53-3.18,7.63-7.8,7.63s-7.83-3.1-7.83-7.63S29.73,426,34.37,426,42.17,429.06,42.17,433.57Zm-12.39.06a4.51,4.51,0,0,0,4.59,4.87c2.67,0,4.56-2,4.56-4.87a4.58,4.58,0,1,0-9.15,0Z" fill="#2da7df"/><path d="M49.77,428.55c-1.27,0-2.2.42-2.2,1.49,0,2.76,8,1.27,7.94,6.7,0,3.07-2.73,4.45-5.74,4.45a9.26,9.26,0,0,1-6-2.08l1.15-2.31a8.16,8.16,0,0,0,5,1.86c1.38,0,2.45-.48,2.45-1.6,0-3.07-7.88-1.35-7.85-6.76,0-3,2.65-4.34,5.52-4.34a9.47,9.47,0,0,1,5.24,1.52l-1.18,2.39A8.81,8.81,0,0,0,49.77,428.55Z" fill="#2da7df"/><path d="M72,434.83H60.64a4.56,4.56,0,0,0,4.65,3.74,5.82,5.82,0,0,0,4.22-1.75l1.72,1.83A8.15,8.15,0,0,1,65,441.19c-4.62,0-7.66-3.07-7.66-7.57A7.27,7.27,0,0,1,64.94,426C70.21,426,72.35,429.43,72,434.83Zm-2.82-2.36A3.85,3.85,0,0,0,65,428.58a4.24,4.24,0,0,0-4.39,3.89Z" fill="#2da7df"/><path d="M100.36,431.76v9.32H97.12v-8.42A3.33,3.33,0,0,0,93.58,429c-2.56.08-4.11,2.05-4.11,4.67v7.4H86.23v-8.42A3.31,3.31,0,0,0,82.71,429c-2.59.08-4.17,2.05-4.17,4.67v7.4H75.33v-15h3.21V429c1-2.11,3-3,5.43-3a5,5,0,0,1,5.21,3.6c1-2.51,3-3.6,5.69-3.6C98.3,426,100.36,428.19,100.36,431.76Z" fill="#2da7df"/><path d="M118.91,433.57c0,4.53-3.18,7.63-7.8,7.63s-7.83-3.1-7.83-7.63,3.18-7.57,7.83-7.57S118.91,429.06,118.91,433.57Zm-12.39.06a4.51,4.51,0,0,0,4.59,4.87c2.67,0,4.56-2,4.56-4.87a4.58,4.58,0,1,0-9.15,0Z" fill="#2da7df"/><path d="M136.62,431.76v9.32h-3.24v-8.42a3.34,3.34,0,0,0-3.6-3.63,4.19,4.19,0,0,0-4.25,4.08v8h-3.24v-15h3.24V429c1.07-2.08,3-3,5.52-3C134.54,426,136.62,428.19,136.62,431.76Z" fill="#2da7df"/><path d="M155.23,420.19v20.89H152v-2.56a5.8,5.8,0,0,1-5.26,2.7c-4.31,0-7.18-3.12-7.18-7.69s2.9-7.57,7.12-7.57A5.92,5.92,0,0,1,152,428.7v-8.5ZM152,433.65c0-2.9-1.89-4.93-4.59-4.93s-4.59,2.06-4.62,4.93,1.89,4.87,4.62,4.87A4.54,4.54,0,0,0,152,433.65Z" fill="#2da7df"/><path d="M166.4,431.4v2.22h-6.92V431.4Z" fill="#2da7df"/><path d="M174,421.38v8.56h10.44v-8.56h3.32v19.71h-3.32v-8.16H174v8.16h-3.32V421.38Z" fill="#2da7df"/><path d="M207,433.57c0,4.53-3.18,7.63-7.8,7.63s-7.83-3.1-7.83-7.63,3.18-7.57,7.83-7.57S207,429.06,207,433.57Zm-12.39.06a4.51,4.51,0,0,0,4.59,4.87c2.67,0,4.56-2,4.56-4.87a4.58,4.58,0,1,0-9.15,0Z" fill="#2da7df"/><path d="M223.55,434.83H212.23a4.56,4.56,0,0,0,4.65,3.74,5.82,5.82,0,0,0,4.22-1.75l1.72,1.83a8.15,8.15,0,0,1-6.19,2.53c-4.62,0-7.66-3.07-7.66-7.57a7.27,7.27,0,0,1,7.57-7.63C221.8,426,223.94,429.43,223.55,434.83Zm-2.82-2.36a3.85,3.85,0,0,0-4.17-3.89,4.24,4.24,0,0,0-4.39,3.89Z" fill="#2da7df"/><path d="M235.34,426v3.1c-3-.17-4.93,1.6-5.18,4.17v7.83h-3.24v-15h3.24v3A5.44,5.44,0,0,1,235.34,426Z" fill="#2da7df"/><path d="M246.44,426v3.1c-3-.17-4.93,1.6-5.18,4.17v7.83H238v-15h3.24v3A5.44,5.44,0,0,1,246.44,426Z" fill="#2da7df"/><path d="M261.38,424.9v1.77h3.91v2.42h-3.91v12h-3.21v-12h-2v-2.42h2V425.2a4.91,4.91,0,0,1,5.15-5.15,5.72,5.72,0,0,1,3.38,1l-1.24,2.48a3.62,3.62,0,0,0-2.05-.7A1.87,1.87,0,0,0,261.38,424.9Z" fill="#2da7df"/><path d="M281.15,433.57c0,4.53-3.18,7.63-7.8,7.63s-7.83-3.1-7.83-7.63,3.18-7.57,7.83-7.57S281.15,429.06,281.15,433.57Zm-12.39.06a4.51,4.51,0,0,0,4.59,4.87c2.67,0,4.56-2,4.56-4.87a4.58,4.58,0,1,0-9.15,0Z" fill="#2da7df"/><path d="M292.94,426v3.1c-3-.17-4.93,1.6-5.18,4.17v7.83h-3.24v-15h3.24v3A5.44,5.44,0,0,1,292.94,426Z" fill="#2da7df"/><path d="M319.43,426.3a4.36,4.36,0,0,1-3.46,4.39,4.78,4.78,0,0,1,4.22,5c0,3.38-2.73,5.41-7.18,5.41h-8.76V421.38h8.56C316.9,421.38,319.43,423.23,319.43,426.3Zm-3.41.59c0-1.63-1.27-2.56-3.38-2.53h-5.07v5.18h5.07C314.76,429.54,316,428.58,316,426.89Zm.76,8.36c0-1.75-1.55-2.82-4.14-2.79h-5.07v5.63h5.07C315.24,438.13,316.79,437.08,316.79,435.26Z" fill="#2da7df"/><path d="M338.15,433.57c0,4.53-3.18,7.63-7.8,7.63s-7.83-3.1-7.83-7.63,3.18-7.57,7.83-7.57S338.15,429.06,338.15,433.57Zm-12.39.06a4.51,4.51,0,0,0,4.59,4.87c2.67,0,4.56-2,4.56-4.87a4.58,4.58,0,1,0-9.15,0Z" fill="#2da7df"/><path d="M350.51,441.08v-1.83a6.07,6.07,0,0,1-5,2c-3.24,0-5.26-2-5.26-4.65s2.05-4.48,5.66-4.5h4.53v-.45c0-1.89-1.21-3-3.58-3a7.89,7.89,0,0,0-4.42,1.52l-1.32-2.25a11,11,0,0,1,6.45-1.89c3.86,0,6,2,6.05,5.26l0,9.83Zm0-5.26v-1.38h-4.05c-2.11,0-3.1.56-3.1,2s1.1,2.22,2.9,2.22C348.54,438.66,350.31,437.45,350.48,435.82Z" fill="#2da7df"/><path d="M366.44,426v3.1c-3-.17-4.93,1.6-5.18,4.17v7.83H358v-15h3.24v3A5.44,5.44,0,0,1,366.44,426Z" fill="#2da7df"/><path d="M383.39,420.19v20.89h-3.24v-2.56a5.8,5.8,0,0,1-5.26,2.7c-4.31,0-7.18-3.12-7.18-7.69s2.9-7.57,7.12-7.57a5.92,5.92,0,0,1,5.32,2.73v-8.5Zm-3.24,13.46c0-2.9-1.89-4.93-4.59-4.93s-4.59,2.06-4.62,4.93,1.89,4.87,4.62,4.87A4.54,4.54,0,0,0,380.15,433.65Z" fill="#2da7df"/><path d="M411,433.57c0,4.53-3.18,7.63-7.8,7.63s-7.83-3.1-7.83-7.63,3.18-7.57,7.83-7.57S411,429.06,411,433.57Zm-12.39.06a4.51,4.51,0,0,0,4.59,4.87c2.67,0,4.56-2,4.56-4.87a4.58,4.58,0,1,0-9.15,0Z" fill="#2da7df"/><path d="M418,424.9v1.77H422v2.42H418v12h-3.21v-12h-2v-2.42h2V425.2a4.91,4.91,0,0,1,5.15-5.15,5.72,5.72,0,0,1,3.38,1l-1.24,2.48a3.62,3.62,0,0,0-2.05-.7A1.87,1.87,0,0,0,418,424.9Z" fill="#2da7df"/><path d="M446.59,421.38v3H435.84v5.35h9.63v3h-9.63v5.43h11.09v3H432.51V421.38Z" fill="#2da7df"/><path d="M465.06,420.19v20.89h-3.24v-2.56a5.8,5.8,0,0,1-5.26,2.7c-4.31,0-7.18-3.12-7.18-7.69s2.9-7.57,7.12-7.57a5.92,5.92,0,0,1,5.32,2.73v-8.5Zm-3.24,13.46c0-2.9-1.89-4.93-4.59-4.93s-4.59,2.06-4.62,4.93,1.89,4.87,4.62,4.87A4.54,4.54,0,0,0,461.82,433.65Z" fill="#2da7df"/><path d="M483.58,426.1v15h-3.24v-2.93c-1,2.08-2.9,3-5.35,3-3.43,0-5.49-2.2-5.49-5.77V426.1h3.24v8.42a3.29,3.29,0,0,0,3.49,3.63c2.59-.06,4.11-2.06,4.11-4.67V426.1Z" fill="#2da7df"/><path d="M494.64,428.84c-2.59,0-4.45,1.94-4.45,4.79s1.86,4.79,4.45,4.79a5.58,5.58,0,0,0,4.42-1.8l1.8,1.8a7.62,7.62,0,0,1-6.36,2.79,7.6,7.6,0,0,1,0-15.2,7.9,7.9,0,0,1,6.19,2.45l-1.77,2.08A5.66,5.66,0,0,0,494.64,428.84Z" fill="#2da7df"/><path d="M512.61,441.08v-1.83a6.07,6.07,0,0,1-5,2c-3.24,0-5.26-2-5.26-4.65s2.05-4.48,5.66-4.5h4.53v-.45c0-1.89-1.21-3-3.58-3a7.89,7.89,0,0,0-4.42,1.52l-1.32-2.25a11,11,0,0,1,6.45-1.89c3.86,0,6,2,6.05,5.26l0,9.83Zm0-5.26v-1.38h-4.05c-2.11,0-3.1.56-3.1,2s1.1,2.22,2.9,2.22C510.63,438.66,512.41,437.45,512.58,435.82Z" fill="#2da7df"/><path d="M528.6,440.13a7.19,7.19,0,0,1-3.69,1.1c-2.25,0-4.19-1.29-4.19-4.36v-7.77H518.6v-2.42h2.11v-4.11h3.21v4.11h4.42v2.42h-4.42v7.18c0,1.55.59,2,1.6,2a5.24,5.24,0,0,0,2.25-.65Z" fill="#2da7df"/><path d="M535.07,421.83a1.89,1.89,0,1,1-1.89-1.94A1.86,1.86,0,0,1,535.07,421.83Zm-.28,4.28v15h-3.21v-15Z" fill="#2da7df"/><path d="M553.79,433.57c0,4.53-3.18,7.63-7.8,7.63s-7.83-3.1-7.83-7.63S541.35,426,546,426,553.79,429.06,553.79,433.57Zm-12.39.06a4.51,4.51,0,0,0,4.59,4.87c2.67,0,4.56-2,4.56-4.87a4.58,4.58,0,1,0-9.15,0Z" fill="#2da7df"/><path d="M571.5,431.76v9.32h-3.24v-8.42a3.34,3.34,0,0,0-3.6-3.63,4.19,4.19,0,0,0-4.25,4.08v8h-3.24v-15h3.24V429c1.07-2.08,3-3,5.52-3C569.42,426,571.5,428.19,571.5,431.76Z" fill="#2da7df"/></svg>